<?xml version="1.0" encoding="UTF-8"?>
<svg id="Layer_1" data-name="Layer 1" xmlns="http://www.w3.org/2000/svg" viewBox="0 0 641 108">
  <g>
    <g>
      <path d="m161.65,63.5c-.76,1.62-1.81,2.98-3.16,4.08-1.35,1.1-2.96,1.94-4.84,2.52-1.87.58-3.95.87-6.23.87-3.2,0-6.34-.55-9.42-1.65-3.08-1.1-5.88-2.79-8.4-5.07l5.46-6.54c1.92,1.56,3.89,2.8,5.91,3.72,2.02.92,4.23,1.38,6.63,1.38,1.92,0,3.41-.35,4.47-1.05,1.06-.7,1.59-1.67,1.59-2.91v-.12c0-.6-.11-1.13-.33-1.59-.22-.46-.64-.89-1.26-1.29-.62-.4-1.48-.8-2.59-1.2-1.1-.4-2.54-.82-4.3-1.26-2.13-.52-4.05-1.1-5.78-1.74-1.73-.64-3.19-1.43-4.39-2.37-1.2-.94-2.14-2.11-2.8-3.51-.66-1.4-.99-3.14-.99-5.22v-.12c0-1.92.36-3.65,1.07-5.19.72-1.54,1.72-2.87,3.01-3.99,1.29-1.12,2.83-1.98,4.63-2.58,1.79-.6,3.77-.9,5.93-.9,3.08,0,5.91.46,8.49,1.38,2.58.92,4.95,2.24,7.11,3.96l-4.8,6.96c-1.88-1.28-3.72-2.29-5.52-3.03-1.8-.74-3.6-1.11-5.4-1.11s-3.15.35-4.05,1.05c-.9.7-1.35,1.57-1.35,2.61v.12c0,.68.13,1.27.39,1.77.26.5.73.95,1.41,1.35.68.4,1.61.78,2.8,1.14s2.68.78,4.48,1.26c2.13.56,4.02,1.19,5.69,1.89,1.66.7,3.07,1.54,4.21,2.52,1.14.98,2.01,2.13,2.59,3.45.58,1.32.87,2.9.87,4.74v.12c0,2.08-.38,3.93-1.13,5.55Z" fill="#fff" stroke-width="0"/>
      <path d="m170.83,70.37V28.37h31.62v8.22h-22.5v8.52h19.8v8.22h-19.8v8.82h22.8v8.22h-31.92Z" fill="#fff" stroke-width="0"/>
      <path d="m242.29,70.37l-3.84-9.42h-17.76l-3.84,9.42h-9.42l18-42.3h8.52l18,42.3h-9.66Zm-12.72-31.2l-5.58,13.62h11.16l-5.58-13.62Z" fill="#fff" stroke-width="0"/>
      <path d="m287.89,70.37l-20.34-26.7v26.7h-9.12V28.37h8.52l19.68,25.86v-25.86h9.12v42h-7.86Z" fill="#fff" stroke-width="0"/>
      <path d="m342.91,57.65c-1.08,2.56-2.61,4.78-4.59,6.66-1.98,1.88-4.34,3.36-7.08,4.44-2.74,1.08-5.75,1.62-9.03,1.62h-16.38V28.37h16.38c3.28,0,6.29.53,9.03,1.59,2.74,1.06,5.1,2.53,7.08,4.41,1.98,1.88,3.51,4.09,4.59,6.63,1.08,2.54,1.62,5.29,1.62,8.25v.12c0,2.96-.54,5.72-1.62,8.28Zm-8.04-8.28c0-1.84-.31-3.54-.93-5.1-.62-1.56-1.48-2.9-2.58-4.02-1.1-1.12-2.43-1.99-3.99-2.61-1.56-.62-3.28-.93-5.16-.93h-7.14v25.32h7.14c1.88,0,3.6-.3,5.16-.9,1.56-.6,2.89-1.46,3.99-2.58,1.1-1.12,1.96-2.44,2.58-3.96.62-1.52.93-3.22.93-5.1v-.12Z" fill="#fff" stroke-width="0"/>
      <path d="m352.75,70.37V28.37h31.62v8.22h-22.5v8.52h19.8v8.22h-19.8v8.82h22.8v8.22h-31.92Z" fill="#fff" stroke-width="0"/>
      <path d="m414.49,70.67h-8.16l-16.98-42.3h10.2l10.98,29.58,10.98-29.58h9.96l-16.98,42.3Z" fill="#fff" stroke-width="0"/>
      <path d="m459.49,70.67h-8.16l-16.98-42.3h10.2l10.98,29.58,10.98-29.58h9.96l-16.98,42.3Z" fill="#fff" stroke-width="0"/>
      <path d="m482.95,70.37V28.37h31.62v8.22h-22.5v8.52h19.8v8.22h-19.8v8.82h22.8v8.22h-31.92Z" fill="#fff" stroke-width="0"/>
      <path d="m548.64,70.37l-9-13.44h-7.26v13.44h-9.24V28.37h19.2c5,0,8.89,1.22,11.67,3.66,2.78,2.44,4.17,5.84,4.17,10.2v.12c0,3.4-.83,6.17-2.49,8.31-1.66,2.14-3.83,3.71-6.51,4.71l10.26,15h-10.8Zm.18-27.66c0-2-.64-3.5-1.92-4.5-1.28-1-3.06-1.5-5.34-1.5h-9.18v12.06h9.36c2.28,0,4.03-.54,5.25-1.62,1.22-1.08,1.83-2.52,1.83-4.32v-.12Z" fill="#fff" stroke-width="0"/>
      <path d="m595.75,63.5c-.76,1.62-1.81,2.98-3.16,4.08-1.35,1.1-2.96,1.94-4.84,2.52-1.87.58-3.95.87-6.23.87-3.2,0-6.34-.55-9.42-1.65-3.08-1.1-5.88-2.79-8.4-5.07l5.46-6.54c1.92,1.56,3.89,2.8,5.91,3.72,2.02.92,4.23,1.38,6.63,1.38,1.92,0,3.41-.35,4.47-1.05,1.06-.7,1.59-1.67,1.59-2.91v-.12c0-.6-.11-1.13-.33-1.59-.22-.46-.64-.89-1.26-1.29-.62-.4-1.48-.8-2.59-1.2-1.1-.4-2.54-.82-4.3-1.26-2.12-.52-4.05-1.1-5.78-1.74-1.72-.64-3.19-1.43-4.39-2.37-1.2-.94-2.14-2.11-2.8-3.51-.66-1.4-.99-3.14-.99-5.22v-.12c0-1.92.36-3.65,1.07-5.19.72-1.54,1.72-2.87,3.01-3.99,1.29-1.12,2.83-1.98,4.63-2.58,1.79-.6,3.77-.9,5.93-.9,3.08,0,5.91.46,8.49,1.38,2.58.92,4.95,2.24,7.11,3.96l-4.8,6.96c-1.88-1.28-3.72-2.29-5.52-3.03-1.8-.74-3.6-1.11-5.4-1.11s-3.15.35-4.05,1.05c-.9.7-1.35,1.57-1.35,2.61v.12c0,.68.13,1.27.39,1.77.26.5.73.95,1.41,1.35.68.4,1.61.78,2.8,1.14,1.18.36,2.68.78,4.48,1.26,2.12.56,4.02,1.19,5.68,1.89,1.66.7,3.07,1.54,4.21,2.52,1.14.98,2,2.13,2.59,3.45.58,1.32.87,2.9.87,4.74v.12c0,2.08-.38,3.93-1.13,5.55Z" fill="#fff" stroke-width="0"/>
      <path d="m604.92,70.37V28.37h31.62v8.22h-22.5v8.52h19.8v8.22h-19.8v8.82h22.8v8.22h-31.92Z" fill="#fff" stroke-width="0"/>
    </g>
    <g>
      <path d="m161.65,63.5c-.76,1.62-1.81,2.98-3.16,4.08-1.35,1.1-2.96,1.94-4.84,2.52-1.87.58-3.95.87-6.23.87-3.2,0-6.34-.55-9.42-1.65-3.08-1.1-5.88-2.79-8.4-5.07l5.46-6.54c1.92,1.56,3.89,2.8,5.91,3.72,2.02.92,4.23,1.38,6.63,1.38,1.92,0,3.41-.35,4.47-1.05,1.06-.7,1.59-1.67,1.59-2.91v-.12c0-.6-.11-1.13-.33-1.59-.22-.46-.64-.89-1.26-1.29-.62-.4-1.48-.8-2.59-1.2-1.1-.4-2.54-.82-4.3-1.26-2.13-.52-4.05-1.1-5.78-1.74-1.73-.64-3.19-1.43-4.39-2.37-1.2-.94-2.14-2.11-2.8-3.51-.66-1.4-.99-3.14-.99-5.22v-.12c0-1.92.36-3.65,1.07-5.19.72-1.54,1.72-2.87,3.01-3.99,1.29-1.12,2.83-1.98,4.63-2.58,1.79-.6,3.77-.9,5.93-.9,3.08,0,5.91.46,8.49,1.38,2.58.92,4.95,2.24,7.11,3.96l-4.8,6.96c-1.88-1.28-3.72-2.29-5.52-3.03-1.8-.74-3.6-1.11-5.4-1.11s-3.15.35-4.05,1.05c-.9.7-1.35,1.57-1.35,2.61v.12c0,.68.13,1.27.39,1.77.26.5.73.95,1.41,1.35.68.4,1.61.78,2.8,1.14s2.68.78,4.48,1.26c2.13.56,4.02,1.19,5.69,1.89,1.66.7,3.07,1.54,4.21,2.52,1.14.98,2.01,2.13,2.59,3.45.58,1.32.87,2.9.87,4.74v.12c0,2.08-.38,3.93-1.13,5.55Z" fill="#fff" stroke-width="0"/>
      <path d="m170.83,70.37V28.37h31.62v8.22h-22.5v8.52h19.8v8.22h-19.8v8.82h22.8v8.22h-31.92Z" fill="#fff" stroke-width="0"/>
      <path d="m242.29,70.37l-3.84-9.42h-17.76l-3.84,9.42h-9.42l18-42.3h8.52l18,42.3h-9.66Zm-12.72-31.2l-5.58,13.62h11.16l-5.58-13.62Z" fill="#fff" stroke-width="0"/>
      <path d="m287.89,70.37l-20.34-26.7v26.7h-9.12V28.37h8.52l19.68,25.86v-25.86h9.12v42h-7.86Z" fill="#fff" stroke-width="0"/>
      <path d="m342.91,57.65c-1.08,2.56-2.61,4.78-4.59,6.66-1.98,1.88-4.34,3.36-7.08,4.44-2.74,1.08-5.75,1.62-9.03,1.62h-16.38V28.37h16.38c3.28,0,6.29.53,9.03,1.59,2.74,1.06,5.1,2.53,7.08,4.41,1.98,1.88,3.51,4.09,4.59,6.63,1.08,2.54,1.62,5.29,1.62,8.25v.12c0,2.96-.54,5.72-1.62,8.28Zm-8.04-8.28c0-1.84-.31-3.54-.93-5.1-.62-1.56-1.48-2.9-2.58-4.02-1.1-1.12-2.43-1.99-3.99-2.61-1.56-.62-3.28-.93-5.16-.93h-7.14v25.32h7.14c1.88,0,3.6-.3,5.16-.9,1.56-.6,2.89-1.46,3.99-2.58,1.1-1.12,1.96-2.44,2.58-3.96.62-1.52.93-3.22.93-5.1v-.12Z" fill="#fff" stroke-width="0"/>
      <path d="m352.75,70.37V28.37h31.62v8.22h-22.5v8.52h19.8v8.22h-19.8v8.82h22.8v8.22h-31.92Z" fill="#fff" stroke-width="0"/>
      <path d="m414.49,70.67h-8.16l-16.98-42.3h10.2l10.98,29.58,10.98-29.58h9.96l-16.98,42.3Z" fill="#fff" stroke-width="0"/>
      <path d="m459.49,70.67h-8.16l-16.98-42.3h10.2l10.98,29.58,10.98-29.58h9.96l-16.98,42.3Z" fill="#fff" stroke-width="0"/>
      <path d="m482.95,70.37V28.37h31.62v8.22h-22.5v8.52h19.8v8.22h-19.8v8.82h22.8v8.22h-31.92Z" fill="#fff" stroke-width="0"/>
      <path d="m548.64,70.37l-9-13.44h-7.26v13.44h-9.24V28.37h19.2c5,0,8.89,1.22,11.67,3.66,2.78,2.44,4.17,5.84,4.17,10.2v.12c0,3.4-.83,6.17-2.49,8.31-1.66,2.14-3.83,3.71-6.51,4.71l10.26,15h-10.8Zm.18-27.66c0-2-.64-3.5-1.92-4.5-1.28-1-3.06-1.5-5.34-1.5h-9.18v12.06h9.36c2.28,0,4.03-.54,5.25-1.62,1.22-1.08,1.83-2.52,1.83-4.32v-.12Z" fill="#fff" stroke-width="0"/>
      <path d="m595.75,63.5c-.76,1.62-1.81,2.98-3.16,4.08-1.35,1.1-2.96,1.94-4.84,2.52-1.87.58-3.95.87-6.23.87-3.2,0-6.34-.55-9.42-1.65-3.08-1.1-5.88-2.79-8.4-5.07l5.46-6.54c1.92,1.56,3.89,2.8,5.91,3.72,2.02.92,4.23,1.38,6.63,1.38,1.92,0,3.41-.35,4.47-1.05,1.06-.7,1.59-1.67,1.59-2.91v-.12c0-.6-.11-1.13-.33-1.59-.22-.46-.64-.89-1.26-1.29-.62-.4-1.48-.8-2.59-1.2-1.1-.4-2.54-.82-4.3-1.26-2.12-.52-4.05-1.1-5.78-1.74-1.72-.64-3.19-1.43-4.39-2.37-1.2-.94-2.14-2.11-2.8-3.51-.66-1.4-.99-3.14-.99-5.22v-.12c0-1.92.36-3.65,1.07-5.19.72-1.54,1.72-2.87,3.01-3.99,1.29-1.12,2.83-1.98,4.63-2.58,1.79-.6,3.77-.9,5.93-.9,3.08,0,5.91.46,8.49,1.38,2.58.92,4.95,2.24,7.11,3.96l-4.8,6.96c-1.88-1.28-3.72-2.29-5.52-3.03-1.8-.74-3.6-1.11-5.4-1.11s-3.15.35-4.05,1.05c-.9.7-1.35,1.57-1.35,2.61v.12c0,.68.13,1.27.39,1.77.26.5.73.95,1.41,1.35.68.4,1.61.78,2.8,1.14,1.18.36,2.68.78,4.48,1.26,2.12.56,4.02,1.19,5.68,1.89,1.66.7,3.07,1.54,4.21,2.52,1.14.98,2,2.13,2.59,3.45.58,1.32.87,2.9.87,4.74v.12c0,2.08-.38,3.93-1.13,5.55Z" fill="#fff" stroke-width="0"/>
      <path d="m604.92,70.37V28.37h31.62v8.22h-22.5v8.52h19.8v8.22h-19.8v8.82h22.8v8.22h-31.92Z" fill="#fff" stroke-width="0"/>
    </g>
  </g>
  <path d="m54,0C24.18,0,0,24.18,0,54s24.18,54,54,54,54-24.18,54-54S83.82,0,54,0Zm-5.18,43.77l-20.28,8.34,20.28,8.34v8.58l-29.04-12.72v-8.28l29.04-12.72v8.46Zm39.6,12.54l-29.04,12.72v-8.46l20.28-8.34-20.28-8.34v-8.58l29.04,12.72v8.28Z" fill="#fff" stroke-width="0"/>
</svg>